<mxfile host="app.diagrams.net" modified="2021-03-06T03:32:20.876Z" agent="5.0 (Windows NT 10.0; Win64; x64) AppleWebKit/537.36 (KHTML, like Gecko) Chrome/88.0.4324.182 Safari/537.36 Edg/88.0.705.81" etag="BNK7p7DFqAGgYcEQe0im" version="14.4.4" type="github">
  <diagram id="OsSlEWbJnPvZUIOAh5h8" name="第 1 页">
    <mxGraphModel dx="1672" dy="518" grid="1" gridSize="10" guides="1" tooltips="1" connect="1" arrows="1" fold="1" page="1" pageScale="1" pageWidth="100" pageHeight="100" math="0" shadow="0">
      <root>
        <mxCell id="0" />
        <mxCell id="1" parent="0" />
        <mxCell id="i9_yPo5TcASSOzV6OYey-1" value="隐成本&lt;br&gt;（正常利润）" style="rounded=1;fontFamily=Helvetica;fontStyle=0;fontSize=12;align=center;horizontal=1;whiteSpace=wrap;html=1;labelBorderColor=none;labelBackgroundColor=none;fillColor=#f5f5f5;strokeColor=#666666;fontColor=#333333;glass=0;shadow=0;sketch=0;" vertex="1" parent="1">
          <mxGeometry x="319" y="380" width="80" height="40" as="geometry" />
        </mxCell>
        <mxCell id="i9_yPo5TcASSOzV6OYey-2" value="显成本&lt;br&gt;会计成本" style="rounded=1;fontFamily=Helvetica;fontStyle=0;fontSize=12;align=center;horizontal=1;whiteSpace=wrap;html=1;labelBorderColor=none;labelBackgroundColor=none;fillColor=#f5f5f5;strokeColor=#666666;fontColor=#333333;glass=0;shadow=0;sketch=0;" vertex="1" parent="1">
          <mxGeometry x="319" y="420" width="80" height="40" as="geometry" />
        </mxCell>
        <mxCell id="i9_yPo5TcASSOzV6OYey-3" value="" style="rounded=1;fontFamily=Helvetica;fontStyle=0;fontSize=12;align=center;horizontal=1;whiteSpace=wrap;html=1;labelBorderColor=none;labelBackgroundColor=none;fillColor=#f5f5f5;strokeColor=#666666;fontColor=#333333;glass=0;shadow=0;sketch=0;" vertex="1" parent="1">
          <mxGeometry x="319" y="340" width="80" height="40" as="geometry" />
        </mxCell>
        <mxCell id="i9_yPo5TcASSOzV6OYey-4" value="" style="shape=curlyBracket;whiteSpace=wrap;html=1;rounded=1;shadow=0;glass=0;labelBackgroundColor=none;sketch=0;fontFamily=Helvetica;fontSize=12;align=center;" vertex="1" parent="1">
          <mxGeometry x="269" y="340" width="20" height="120" as="geometry" />
        </mxCell>
        <mxCell id="i9_yPo5TcASSOzV6OYey-5" value="" style="shape=curlyBracket;whiteSpace=wrap;html=1;rounded=1;shadow=0;glass=0;labelBackgroundColor=none;sketch=0;fontFamily=Helvetica;fontSize=12;align=center;" vertex="1" parent="1">
          <mxGeometry x="299" y="340" width="20" height="80" as="geometry" />
        </mxCell>
        <mxCell id="i9_yPo5TcASSOzV6OYey-6" value="会计利润" style="rounded=0;shadow=0;glass=0;labelBackgroundColor=none;sketch=0;fontFamily=Helvetica;fontSize=12;align=center;rotation=-90;horizontal=1;verticalAlign=middle;direction=west;whiteSpace=wrap;html=1;strokeColor=none;" vertex="1" parent="1">
          <mxGeometry x="264" y="371.25" width="55" height="17.5" as="geometry" />
        </mxCell>
        <mxCell id="i9_yPo5TcASSOzV6OYey-7" value="总收益" style="rounded=0;shadow=0;glass=0;labelBackgroundColor=none;sketch=0;fontFamily=Helvetica;fontSize=12;align=center;rotation=-90;horizontal=1;verticalAlign=middle;direction=west;whiteSpace=wrap;html=1;strokeColor=none;" vertex="1" parent="1">
          <mxGeometry x="239" y="391.25" width="45" height="17.5" as="geometry" />
        </mxCell>
        <mxCell id="i9_yPo5TcASSOzV6OYey-8" value="" style="shape=curlyBracket;whiteSpace=wrap;html=1;rounded=1;shadow=0;glass=0;labelBackgroundColor=none;sketch=0;fontFamily=Helvetica;fontSize=12;align=center;rotation=-180;" vertex="1" parent="1">
          <mxGeometry x="399" y="380" width="20" height="80" as="geometry" />
        </mxCell>
        <mxCell id="i9_yPo5TcASSOzV6OYey-9" value="总成本" style="rounded=0;shadow=0;glass=0;labelBackgroundColor=none;sketch=0;fontFamily=Helvetica;fontSize=12;align=center;rotation=90;horizontal=1;verticalAlign=middle;direction=west;whiteSpace=wrap;html=1;strokeColor=none;" vertex="1" parent="1">
          <mxGeometry x="404.63" y="411.25" width="45" height="17.5" as="geometry" />
        </mxCell>
      </root>
    </mxGraphModel>
  </diagram>
</mxfile>
